<?xml version="1.0" standalone="no"?>
<!DOCTYPE svg PUBLIC "-//W3C//DTD SVG 20010904//EN"
 "http://www.w3.org/TR/2001/REC-SVG-20010904/DTD/svg10.dtd">
<svg version="1.0" xmlns="http://www.w3.org/2000/svg"
 width="275.000000pt" height="183.000000pt" viewBox="0 0 275.000000 183.000000"
 preserveAspectRatio="xMidYMid meet">

<g transform="translate(0.000000,183.000000) scale(0.100000,-0.100000)"
fill="#000000" stroke="none">
<path d="M0 1410 l0 -420 24 -11 c13 -6 34 -29 47 -50 23 -38 25 -39 68 -34
40 6 143 55 114 55 -7 0 -2 11 11 25 13 14 28 25 34 25 6 0 18 13 27 29 29 57
106 85 169 61 59 -22 87 -132 46 -180 -11 -13 -20 -28 -20 -34 0 -6 5 -4 10 4
5 8 10 11 10 7 0 -5 12 1 28 11 15 11 42 22 61 25 18 3 36 9 39 13 4 4 -1 4
-10 1 -10 -4 -18 -2 -18 3 0 6 5 10 11 10 6 0 8 9 4 20 -8 25 9 26 27 3 10
-14 28 -18 85 -18 39 0 75 3 78 7 4 4 16 3 26 -3 17 -8 19 -6 19 21 0 21 -4
29 -12 24 -8 -5 -9 0 -5 17 4 13 7 33 7 45 0 29 106 50 148 28 15 -7 33 -14
41 -14 15 0 40 -28 41 -47 0 -7 -13 -9 -41 -6 -30 4 -41 3 -38 -6 3 -7 7 -11
9 -10 3 1 15 -3 28 -10 29 -15 189 -23 198 -10 3 6 12 8 20 5 10 -4 14 2 14
19 0 70 39 125 88 125 7 0 10 5 6 12 -5 8 0 9 17 4 13 -4 48 -9 78 -12 29 -2
57 -7 61 -9 21 -13 114 -24 124 -16 20 17 66 31 66 21 0 -6 -6 -10 -13 -10 -7
0 -20 -6 -29 -13 -15 -11 -15 -15 0 -50 10 -22 26 -40 38 -43 42 -11 75 -57
76 -107 0 -26 2 -47 5 -47 2 0 13 9 25 20 33 31 96 27 145 -9 27 -20 44 -26
51 -19 6 6 12 6 16 -1 15 -24 56 -12 76 22 23 39 57 57 105 57 50 0 63 8 76
48 13 41 55 92 76 92 8 0 13 12 13 33 0 75 75 135 154 123 46 -8 106 -58 106
-89 0 -11 16 -37 35 -58 58 -65 43 -144 -36 -185 -16 -8 -29 -20 -28 -27 6
-46 -34 -103 -63 -92 -10 4 -15 11 -12 16 3 5 -8 9 -25 9 -33 0 -51 -17 -28
-26 16 -6 27 -36 33 -91 10 -78 -111 -133 -188 -85 -35 21 -54 50 -60 87 -3
16 -10 19 -35 17 -38 -4 -113 15 -113 28 0 18 -19 10 -25 -10 -3 -11 -13 -20
-22 -20 -12 0 -13 -3 -4 -14 9 -11 9 -15 -1 -19 -10 -4 -10 -8 2 -16 8 -6 11
-11 7 -11 -5 0 -20 9 -33 19 l-24 19 22 29 c26 31 51 74 46 76 -2 1 -18 10
-35 19 -26 14 -33 14 -33 3 0 -26 12 -44 26 -38 16 6 18 -5 4 -27 -5 -8 -12
-11 -16 -7 -6 6 -54 -53 -54 -67 0 -4 8 -6 17 -6 9 0 14 -3 10 -6 -3 -4 -44
-7 -90 -7 -81 0 -125 14 -149 48 -21 27 -27 80 -13 101 13 21 13 21 -23 8 -20
-7 -46 -13 -57 -14 -28 0 -82 35 -90 59 -6 19 -8 19 -28 7 -24 -15 -95 -29
-141 -28 -28 1 -55 -21 -55 -43 0 -5 6 -1 14 9 8 11 17 17 20 14 18 -18 -140
-85 -160 -67 -5 5 -21 9 -35 9 -19 0 -30 -9 -43 -33 -11 -20 -33 -39 -58 -50
-55 -24 -151 -33 -188 -17 -29 12 -46 34 -36 50 3 4 -2 11 -11 14 -9 3 -14 13
-11 21 4 9 1 12 -9 8 -7 -3 -14 -8 -14 -12 0 -4 -21 -8 -46 -9 -36 -1 -53 -8
-77 -32 -54 -53 -125 -59 -209 -20 -21 10 -38 15 -38 11 0 -10 -191 -1 -212
10 -10 5 -35 3 -65 -6 -26 -8 -49 -15 -50 -15 -1 0 -8 7 -17 15 -10 10 -24 13
-41 9 -23 -6 -25 -11 -25 -61 0 -50 -3 -58 -35 -90 l-35 -35 0 -259 0 -259
1375 0 1375 0 0 915 0 915 -1375 0 -1375 0 0 -420z m2099 -152 c19 -13 24 -28
28 -80 l5 -63 -41 -23 c-46 -26 -61 -22 -61 13 0 28 -20 75 -32 75 -4 0 -8 5
-8 11 0 7 -8 18 -17 25 -11 8 -13 13 -5 14 6 0 12 4 12 10 0 5 -6 7 -14 4 -8
-3 -17 -1 -20 4 -3 5 8 12 25 16 17 3 28 9 25 14 -8 14 78 -2 103 -20z m-142
-68 c74 -45 79 -124 12 -185 -33 -29 -46 -35 -85 -35 -71 0 -134 57 -134 120
0 35 28 84 58 102 37 24 109 23 149 -2z m-577 -20 c-8 -5 -29 -10 -45 -10 -17
0 -36 -5 -42 -11 -12 -12 -5 -52 8 -43 14 9 10 -10 -7 -32 -15 -18 -15 -18 -9
4 4 13 2 22 -4 22 -14 0 -14 -43 0 -57 6 -6 8 -16 4 -23 -12 -19 -45 19 -45
52 0 40 15 65 53 88 33 20 117 30 87 10z m-525 -151 c4 -6 5 -12 2 -15 -7 -7
-37 7 -37 17 0 13 27 11 35 -2z m1325 -13 c0 -3 -4 -8 -10 -11 -5 -3 -10 -1
-10 4 0 6 5 11 10 11 6 0 10 -2 10 -4z m30 -27 c0 -6 -4 -7 -10 -4 -5 3 -10
11 -10 16 0 6 5 7 10 4 6 -3 10 -11 10 -16z m-970 -264 c-7 -8 -17 -15 -22
-15 -11 0 14 29 26 30 5 0 3 -7 -4 -15z m-859 -151 c21 -12 49 -86 49 -127 0
-59 -30 -88 -88 -85 -23 1 -42 5 -42 10 0 5 -12 13 -26 18 -31 12 -66 53 -76
89 -9 30 24 88 56 101 22 9 110 5 127 -6z"/>
<path d="M1750 910 c-8 -5 -13 -10 -10 -11 3 0 13 -2 22 -4 9 -2 22 3 29 11 9
11 8 14 -7 14 -11 0 -26 -5 -34 -10z"/>
</g>
</svg>
